<svg width="200" height="300" xmlns="http://www.w3.org/2000/svg">
  <!-- Calculator Body -->
  <rect x="20" y="20" width="160" height="260" rx="15" ry="15" fill="#333" stroke="#000" stroke-width="2"/>
  
  <!-- Calculator Screen -->
  <rect x="30" y="30" width="140" height="70" rx="10" ry="10" fill="#eee" stroke="#bbb" stroke-width="2"/>
  
  <!-- Pie Chart on Screen -->
  <!-- Pie chart background circle -->
  <circle cx="100" cy="65" r="25" fill="#fff" stroke="#bbb" stroke-width="2"/>
  <!-- Pie chart slice 1 (50%) -->
  <path d="M100 65 L100 40 A25 25 0 0 1 125 65 Z" fill="#4CAF50"/>
  <!-- Pie chart slice 2 (25%) -->
  <path d="M100 65 L125 65 A25 25 0 0 1 112.5 90 Z" fill="#FFC107"/>
  <!-- Pie chart slice 3 (25%) -->
  <path d="M100 65 L112.5 90 A25 25 0 0 1 100 90 Z" fill="#F44336"/>
  
  <!-- Calculator Buttons -->
  <!-- Row 1 -->
  <rect x="40" y="120" width="30" height="30" rx="5" ry="5" fill="#ccc" stroke="#bbb" stroke-width="1"/>
  <rect x="80" y="120" width="30" height="30" rx="5" ry="5" fill="#ccc" stroke="#bbb" stroke-width="1"/>
  <rect x="120" y="120" width="30" height="30" rx="5" ry="5" fill="#ccc" stroke="#bbb" stroke-width="1"/>
  
  <!-- Row 2 -->
  <rect x="40" y="160" width="30" height="30" rx="5" ry="5" fill="#ccc" stroke="#bbb" stroke-width="1"/>
  <rect x="80" y="160" width="30" height="30" rx="5" ry="5" fill="#ccc" stroke="#bbb" stroke-width="1"/>
  <rect x="120" y="160" width="30" height="30" rx="5" ry="5" fill="#ccc" stroke="#bbb" stroke-width="1"/>
  
  <!-- Row 3 -->
  <rect x="40" y="200" width="30" height="30" rx="5" ry="5" fill="#ccc" stroke="#bbb" stroke-width="1"/>
  <rect x="80" y="200" width="30" height="30" rx="5" ry="5" fill="#ccc" stroke="#bbb" stroke-width="1"/>
  <rect x="120" y="200" width="30" height="30" rx="5" ry="5" fill="#ccc" stroke="#bbb" stroke-width="1"/>
  
  <!-- Row 4 -->
  <rect x="40" y="240" width="30" height="30" rx="5" ry="5" fill="#ccc" stroke="#bbb" stroke-width="1"/>
  <rect x="80" y="240" width="30" height="30" rx="5" ry="5" fill="#ccc" stroke="#bbb" stroke-width="1"/>
  <rect x="120" y="240" width="30" height="30" rx="5" ry="5" fill="#ccc" stroke="#bbb" stroke-width="1"/>
</svg>
